<svg width="3864" height="1382" viewBox="0 0 3864 1382" fill="none" xmlns="http://www.w3.org/2000/svg">
<path d="M3173 20.5C3543.61 20.5 3843.49 320.815 3843.5 690.976L3843.49 695.315C3841.6 1063.97 3542.14 1361.5 3173 1361.5C2802.38 1361.5 2502.5 1061.17 2502.5 691C2502.5 320.379 2802.83 20.5 3173 20.5Z" fill="#A4A3A0" stroke="white" stroke-width="41"/>
<mask id="mask0_227_1044" style="mask-type:alpha" maskUnits="userSpaceOnUse" x="2523" y="41" width="1301" height="1300">
<path d="M3173 1341C2813.71 1341 2523 1049.86 2523 691C2523 331.71 2814.14 41 3173 41C3532.29 41 3823 332.141 3823 691C3823.43 1050.29 3532.29 1341 3173 1341Z" fill="#F7C0B5"/>
</mask>
<g mask="url(#mask0_227_1044)">
<path d="M3537.87 1238.33C3534.83 1240.5 3531.37 1242.66 3528.33 1244.83C3524.87 1247 3521.83 1249.16 3518.37 1250.9C3515.33 1252.63 3512.73 1254.36 3509.7 1256.1C3509.27 1256.53 3508.83 1256.53 3508.4 1256.96C3498.43 1263.03 3488.03 1268.66 3477.63 1273.86C3474.6 1275.6 3471.13 1277.33 3468.1 1278.63C3468.1 1278.63 3467.67 1279.06 3467.23 1279.06C3463.77 1280.8 3460.3 1282.53 3456.83 1284.26C3449.9 1287.73 3442.53 1290.76 3435.6 1293.8C3432.13 1295.53 3428.23 1296.83 3424.77 1298.13C3421.3 1299.43 3417.4 1301.16 3413.93 1302.46C3410.47 1303.76 3406.57 1305.5 3403.1 1306.8C3403.1 1306.8 3403.1 1306.8 3402.67 1306.8C3399.2 1308.1 3395.3 1309.4 3391.83 1310.7C3384.03 1313.3 3375.8 1315.9 3368 1318.5C3365.4 1319.36 3362.37 1320.23 3359.77 1321.1C3351.53 1323.7 3343.3 1325.86 3335.07 1327.6C3332.03 1328.46 3329 1328.9 3325.53 1329.76C3317.73 1331.5 3309.5 1333.23 3301.7 1334.96C3299.97 1335.4 3298.67 1335.4 3296.93 1335.83C3294.33 1336.26 3291.3 1336.7 3288.7 1337.13C3284.8 1337.56 3281.33 1338.43 3277.43 1338.86C3275.7 1339.3 3273.97 1339.3 3272.23 1339.73C3270.07 1340.16 3267.47 1340.6 3264.87 1340.6C3257.93 1341.46 3250.57 1342.33 3243.63 1343.2C3241.47 1343.63 3238.87 1343.63 3236.7 1344.06H3236.27C3233.23 1344.5 3230.2 1344.5 3227.17 1344.93C3224.13 1345.36 3221.1 1345.36 3218.07 1345.36C3216.33 1345.36 3214.17 1345.8 3212.43 1345.8C3208.97 1345.8 3205.93 1346.23 3202.9 1346.23C3198.57 1346.23 3194.67 1346.66 3190.33 1346.66C3186 1346.66 3182.1 1346.66 3177.77 1346.66C3174.73 1346.66 3171.7 1346.66 3168.67 1346.66C2986.23 1344.06 2821.57 1266.5 2704.57 1143.43C2704.57 1143.43 2704.57 1143 2704.13 1143C2717.57 1116.56 2767.4 1068.9 2819.4 1029.46C2885.27 979.631 2978.43 948.864 2978.43 948.864C2978.43 948.864 3039.53 938.897 3266.17 986.131C3439.07 1022.53 3512.73 1170.3 3537.87 1238.33Z" fill="#AD827B"/>
<path d="M3314.27 1106.16C3305.17 1150.8 3246.23 1177.23 3147 1137.36C3025.23 1087.96 2978.43 948.864 2978.43 948.864C2971.93 849.198 2956.77 763.831 2956.77 763.831C3097.6 751.698 3264 916.364 3264 916.364L3283.07 997.831C3284.8 1004.76 3288.27 1010.83 3293.47 1015.16C3302.57 1030.76 3320.33 1077.56 3314.27 1106.16Z" fill="#AD827B"/>
<path d="M3293.47 1015.6C3210.7 1011.26 3149.6 999.131 3084.17 881.698C3139.63 930.664 3205.07 949.298 3273.97 957.964L3283.07 997.831C3284.8 1005.2 3288.27 1011.26 3293.47 1015.6Z" fill="#8E5650"/>
<path d="M3464.63 493.431C3472.43 529.831 3476.33 559.298 3455.1 656.364C3433.87 753.431 3474.6 850.498 3372.33 939.331C3303.43 999.131 3182.97 1010.4 3086.77 944.964C3054.27 922.864 3024.37 892.098 3000.1 851.798C2981.03 820.164 2958.93 790.264 2934.23 762.964C2900 725.698 2858.83 650.731 2879.2 518.131C2912.13 302.331 3125.77 277.631 3251.87 301.464C3377.97 325.298 3443.4 397.231 3464.63 493.431Z" fill="#AD827B"/>
<path d="M3049.93 662.864C3049.93 662.864 3036.5 597.864 2973.23 605.664C2918.63 612.598 2899.57 743.464 3023.5 779.864" fill="#AD827B"/>
<path d="M3019.6 720.498C3019.6 720.498 3004 710.531 3005.73 693.198C3008.33 672.831 3005.73 660.264 2996.2 656.364C2972.37 646.398 2967.6 674.131 2968.47 677.598" stroke="#423232" stroke-width="13.4786" stroke-miterlimit="10" stroke-linecap="round" stroke-linejoin="round"/>
<path d="M3350.23 762.531C3350.23 762.531 3366.7 763.397 3382.3 744.764C3390.97 734.364 3398.33 721.364 3393.57 717.464C3388.8 713.131 3310.37 725.264 3305.17 735.664C3299.97 746.064 3330.3 762.531 3350.23 762.531Z" fill="#8E605C"/>
<path d="M3363.23 616.931C3363.23 616.931 3364.1 658.098 3390.53 704.031C3402.23 724.398 3384.47 757.764 3345.9 763.398" stroke="#423232" stroke-width="13.4786" stroke-miterlimit="10" stroke-linecap="round" stroke-linejoin="round"/>
<path d="M3019.39 988.754C3019.39 988.754 3010.72 935.021 2995.99 938.054C2927.52 953.654 2727.75 1011.72 2657.99 1162.52C2592.12 1305.95 2586.05 1507.02 2586.05 1507.02H3681.95C3681.95 1507.02 3662.02 1201.52 3550.22 1107.92C3483.92 1052.02 3424.12 1017.79 3375.15 996.987C3310.15 969.254 3244.72 1027.32 3226.09 1026.02C3192.72 1024.29 3019.39 988.754 3019.39 988.754Z" fill="#544D4D"/>
<path d="M2800.55 1507.02L2781.05 1346.25" stroke="white" stroke-width="13.4786" stroke-miterlimit="10" stroke-linecap="round" stroke-linejoin="round"/>
<path d="M3557.15 1291.65C3557.15 1291.65 3544.15 1323.29 3548.05 1354.92C3551.95 1386.55 3563.22 1432.92 3547.19 1507.02" stroke="white" stroke-width="13.4786" stroke-miterlimit="10" stroke-linecap="round" stroke-linejoin="round"/>
<path d="M2969.55 894.287C2969.55 894.287 2938.35 905.554 2932.72 911.621C2927.09 917.687 2924.49 921.587 2924.49 921.587C2924.49 921.587 2908.89 938.921 2900.22 980.954C2896.32 998.721 2905.42 1027.75 2898.49 1050.72C2878.55 1114.42 2973.02 1212.35 3129.02 1269.99C3247.32 1313.75 3377.75 1273.89 3395.95 1191.55C3413.29 1112.25 3402.89 1076.29 3394.65 1050.72C3378.19 1001.32 3372.99 987.454 3350.89 968.387C3337.02 956.254 3327.49 981.387 3275.49 995.687C3259.45 1000.02 3239.95 1003.49 3214.82 1004.35C3065.32 1009.99 3002.05 925.054 2979.52 900.787C2973.89 896.021 2971.29 893.421 2969.55 894.287Z" fill="white"/>
<path d="M3274.18 995.254C3258.15 999.587 3238.65 1003.05 3213.52 1003.92C3064.02 1009.55 3000.75 924.621 2978.22 900.354" stroke="#CCCCCC" stroke-width="13.4786" stroke-miterlimit="10" stroke-linecap="round" stroke-linejoin="round"/>
<path d="M3353.49 952.787C3392.92 985.72 3461.39 1071.95 3444.92 1264.79C3436.69 1360.12 3483.05 1399.55 3472.65 1414.72C3470.92 1417.32 3468.75 1418.62 3467.02 1419.05C3459.65 1420.79 3452.72 1424.25 3449.25 1431.19C3447.95 1434.22 3445.79 1436.39 3442.75 1438.12C3440.15 1439.85 3437.12 1439.85 3434.52 1439.42C3425.42 1437.25 3415.45 1442.45 3409.82 1450.25C3407.65 1453.29 3405.05 1455.45 3401.15 1456.32C3398.55 1457.19 3395.95 1456.75 3394.22 1456.32C3386.85 1454.15 3378.62 1456.32 3372.12 1461.52C3370.39 1462.82 3368.65 1463.69 3366.49 1463.69C3362.59 1463.69 3359.55 1461.95 3356.95 1459.35C3350.89 1453.72 3342.22 1451.55 3333.55 1454.59C3332.69 1455.02 3332.25 1455.02 3331.39 1455.02C3325.32 1455.89 3320.55 1451.12 3317.09 1442.89C3313.62 1435.09 3305.39 1431.62 3296.72 1432.49C3294.99 1432.49 3293.25 1432.49 3291.09 1432.05C3274.19 1428.15 3252.52 1404.75 3252.09 1376.15C3251.65 1347.99 3258.15 1299.02 3268.99 1276.05C3302.35 1205.42 3314.49 1154.72 3316.22 1116.59C3319.69 1046.82 3275.49 984.42 3279.82 983.12C3324.02 974.02 3353.49 952.787 3353.49 952.787Z" fill="white"/>
<path d="M3268.55 1276.05C3301.92 1205.42 3314.05 1154.72 3315.79 1116.59C3318.39 1062.85 3292.39 1013.02 3282.85 992.654" stroke="#CCCCCC" stroke-width="13.4786" stroke-miterlimit="10" stroke-linecap="round" stroke-linejoin="round"/>
<path d="M3251.65 1376.15C3251.22 1347.99 3257.72 1299.02 3268.55 1276.05C3301.92 1205.42 3314.05 1154.72 3315.79 1116.59" stroke="#CCCCCC" stroke-width="13.4786" stroke-miterlimit="10" stroke-linecap="round" stroke-linejoin="round"/>
<path d="M3290.22 1224.92C3290.22 1224.92 3158.49 1237.92 3071.82 1172.49" stroke="#CCCCCC" stroke-width="13.4786" stroke-miterlimit="10" stroke-linecap="round" stroke-linejoin="round"/>
<path d="M3325.75 996.554C3337.89 1014.32 3351.75 1040.32 3355.22 1072.39" stroke="#CCCCCC" stroke-width="13.4786" stroke-miterlimit="10" stroke-linecap="round" stroke-linejoin="round"/>
<path d="M3380.79 1456.32C3380.79 1456.32 3358.69 1409.52 3380.79 1307.69C3404.19 1199.35 3393.35 1146.05 3393.35 1146.05" stroke="#CCCCCC" stroke-width="13.4786" stroke-miterlimit="10" stroke-linecap="round" stroke-linejoin="round"/>
<path d="M2899.35 1002.62C2899.35 1002.62 2928.39 1062.42 2963.49 1090.15" stroke="#CCCCCC" stroke-width="13.4786" stroke-miterlimit="10" stroke-linecap="round" stroke-linejoin="round"/>
<path d="M3312.32 1146.05C3312.32 1146.05 3229.99 1151.69 3171.92 1129.15" stroke="#CCCCCC" stroke-width="13.4786" stroke-miterlimit="10" stroke-linecap="round" stroke-linejoin="round"/>
<path d="M3206.94 660.439C3196.54 660.006 3188.74 651.339 3189.61 640.939L3190.04 628.806C3190.48 618.406 3199.14 610.606 3209.54 611.473C3219.94 611.906 3227.74 620.573 3226.88 630.973L3226.44 643.106C3226.01 653.073 3217.34 660.873 3206.94 660.439Z" fill="#423232"/>
<path d="M3389.38 666.939C3379.84 666.505 3372.48 658.272 3372.91 648.739L3373.34 637.472C3373.78 627.939 3382.01 620.572 3391.54 621.005C3401.08 621.439 3408.44 629.672 3408.01 639.205L3407.58 650.472C3407.14 660.005 3398.91 667.372 3389.38 666.939Z" fill="#423232"/>
<path d="M3248.98 635.306C3248.98 635.306 3237.71 619.272 3218.21 616.239C3202.18 613.639 3184.41 621.439 3181.81 630.539" stroke="#423232" stroke-width="13.4786" stroke-miterlimit="10" stroke-linecap="round" stroke-linejoin="round"/>
<path d="M3376.81 639.206C3376.81 639.206 3376.81 625.339 3396.74 625.339C3413.21 625.339 3420.14 640.506 3420.14 640.506" stroke="#423232" stroke-width="13.4786" stroke-miterlimit="10" stroke-linecap="round" stroke-linejoin="round"/>
<path d="M3266.74 565.539C3275.84 568.572 3284.94 560.339 3283.21 550.372C3282.34 545.172 3280.18 539.972 3275.84 536.072C3262.84 524.372 3209.11 513.972 3176.61 529.139C3148.01 543.005 3225.14 551.672 3266.74 565.539Z" fill="#423232"/>
<path d="M3396.31 572.473C3388.94 575.073 3381.14 567.273 3382.44 558.173C3382.87 553.406 3384.61 548.639 3388.07 545.173C3398.47 534.773 3434.01 526.539 3456.54 542.573C3476.04 556.006 3430.11 559.906 3396.31 572.473Z" fill="#423232"/>
<path d="M3327.16 813.845C3327.61 821.034 3322.22 833.614 3312.33 842.599C3261.56 811.599 3238.65 827.773 3238.65 827.773C3220.68 800.367 3224.72 763.076 3268.3 791.381C3298.85 810.7 3317.27 813.845 3327.16 813.845Z" fill="#423232"/>
<path d="M3312.33 842.599C3301.55 852.034 3285.37 857.875 3263.36 848.889C3253.03 844.846 3244.94 836.758 3238.65 827.773C3238.65 827.773 3261.56 811.598 3312.33 842.599Z" fill="#FE9DAB"/>
<path d="M3335.69 812.048C3335.69 812.048 3316.82 822.382 3268.3 791.381C3210.34 754.09 3222.03 832.266 3262.91 848.889C3305.59 866.412 3327.61 828.222 3327.16 813.845" stroke="#423232" stroke-width="13.4786" stroke-miterlimit="10" stroke-linecap="round" stroke-linejoin="round"/>
<path d="M3238.65 827.773C3238.65 827.773 3261.56 811.598 3312.33 842.599" stroke="#423232" stroke-width="13.4786" stroke-miterlimit="10" stroke-linecap="round" stroke-linejoin="round"/>
<path d="M3530.78 665.095C3510.42 646.462 3504.78 619.162 3503.05 600.962C3516.05 609.629 3532.95 583.195 3532.08 551.995C3530.78 505.629 3518.65 471.395 3504.35 447.562C3514.32 434.995 3521.68 420.262 3525.58 403.795C3543.35 331.862 3484.85 276.829 3399.48 256.029C3347.05 243.029 3250.85 249.529 3137.75 247.795C3118.25 247.362 3097.88 248.229 3077.95 250.395C3053.68 252.995 3029.85 258.195 3007.75 267.295C2971.78 280.729 2938.85 301.962 2913.72 332.729C2869.52 387.329 2856.95 449.729 2854.78 498.262C2852.62 555.895 2838.75 612.662 2811.45 663.795C2781.98 718.829 2763.78 777.329 2792.82 827.595C2793.68 828.895 2794.55 830.195 2795.42 831.929C2781.55 900.395 2858.68 894.329 2873.85 824.995C2870.82 837.995 2868.65 849.262 2867.35 857.062C2856.95 925.095 2906.35 933.762 2931.05 886.529C2933.65 881.762 2940.15 862.262 2947.08 837.562C2947.08 841.895 2947.52 846.229 2947.95 850.129C2948.82 945.029 3016.42 953.262 3012.52 889.129C3010.78 860.529 3015.55 820.662 3022.92 777.329C2899.85 740.495 2918.92 610.495 2973.95 603.562C3037.22 595.329 3050.65 660.762 3050.65 660.762C3055.42 681.129 3062.35 705.395 3072.75 717.095C3091.38 737.462 3123.45 723.162 3102.65 659.029C3098.32 645.595 3094.42 630.429 3091.82 614.395C3108.28 618.729 3122.58 609.629 3115.65 591.429C3109.15 574.962 3105.68 559.795 3104.82 545.495C3103.52 523.395 3109.15 503.462 3118.68 486.995C3128.65 526.429 3170.25 514.295 3172.85 485.695C3173.72 476.162 3176.75 464.895 3181.08 452.329C3191.48 465.762 3205.78 478.329 3223.55 487.429C3256.48 503.895 3279.88 496.095 3285.08 479.195C3306.32 486.562 3325.38 492.195 3340.12 495.662C3384.32 506.495 3428.08 500.862 3462.32 482.662C3464.05 486.562 3464.92 490.029 3465.35 491.329C3465.78 493.495 3466.22 495.662 3466.65 497.829C3470.55 516.462 3472.72 534.662 3470.98 561.962C3470.98 563.262 3470.98 564.129 3470.55 565.429C3470.55 566.295 3470.55 567.162 3470.12 568.029C3470.12 570.195 3469.68 571.929 3469.68 574.095C3469.68 575.395 3469.25 576.262 3469.25 577.562C3469.25 579.295 3468.82 581.462 3468.38 583.629C3467.95 585.362 3467.95 587.095 3467.52 588.829C3467.52 590.129 3467.08 591.862 3467.08 593.162C3466.65 595.762 3466.22 598.362 3465.78 601.395C3465.78 601.829 3465.78 602.695 3465.35 603.129C3464.92 606.595 3464.05 610.062 3463.62 613.962C3461.45 626.095 3458.85 639.095 3455.82 654.262C3437.62 738.329 3465.78 823.262 3406.42 902.129C3403.82 925.529 3424.18 954.995 3449.32 924.229C3468.82 900.395 3459.72 820.662 3458.42 804.629C3460.15 821.529 3487.02 875.262 3512.15 867.462C3526.02 863.129 3532.08 855.762 3529.92 830.195C3527.32 794.229 3499.15 758.695 3495.25 706.262C3521.25 728.362 3558.08 689.795 3530.78 665.095Z" fill="#423232"/>
</g>
<path d="M2322 20.5C2692.61 20.5 2992.49 320.815 2992.5 690.976L2992.49 695.315C2990.6 1063.97 2691.14 1361.5 2322 1361.5C1951.38 1361.5 1651.5 1061.17 1651.5 691C1651.5 320.379 1951.83 20.5 2322 20.5Z" fill="#A4A3A0" stroke="white" stroke-width="41"/>
<mask id="mask1_227_1044" style="mask-type:alpha" maskUnits="userSpaceOnUse" x="1672" y="41" width="1301" height="1300">
<path d="M2322 1341C1962.71 1341 1672 1049.86 1672 691C1672 331.71 1963.14 41 2322 41C2681.29 41 2972 332.141 2972 691C2972.43 1050.29 2681.29 1341 2322 1341Z" fill="#7F5539"/>
</mask>
<g mask="url(#mask1_227_1044)">
<path d="M2687.73 1238.33C2684.7 1240.5 2681.23 1242.66 2678.2 1244.83C2674.73 1247 2671.7 1249.16 2668.23 1250.9C2665.2 1252.63 2662.6 1254.36 2659.56 1256.1C2659.13 1256.53 2658.7 1256.53 2658.26 1256.96C2648.3 1263.03 2637.9 1268.66 2627.5 1273.86C2624.46 1275.6 2621 1277.33 2617.96 1278.63C2617.96 1278.63 2617.53 1279.06 2617.1 1279.06C2613.63 1280.8 2610.16 1282.53 2606.7 1284.26C2599.76 1287.73 2592.4 1290.76 2585.46 1293.8C2582 1295.53 2578.1 1296.83 2574.63 1298.13C2571.16 1299.43 2567.26 1301.16 2563.8 1302.46C2560.33 1303.76 2556.43 1305.5 2552.96 1306.8C2552.96 1306.8 2552.96 1306.8 2552.53 1306.8C2549.06 1308.1 2545.16 1309.4 2541.7 1310.7C2533.9 1313.3 2525.66 1315.9 2517.86 1318.5C2515.26 1319.36 2512.23 1320.23 2509.63 1321.1C2501.4 1323.7 2493.16 1325.86 2484.93 1327.6C2481.9 1328.46 2478.86 1328.9 2475.4 1329.76C2467.6 1331.5 2459.36 1333.23 2451.56 1334.96C2449.83 1335.4 2448.53 1335.4 2446.8 1335.83C2444.2 1336.26 2441.16 1336.7 2438.56 1337.13C2434.66 1337.56 2431.2 1338.43 2427.3 1338.86C2425.56 1339.3 2423.83 1339.3 2422.1 1339.73C2419.93 1340.16 2417.33 1340.6 2414.73 1340.6C2407.8 1341.46 2400.43 1342.33 2393.5 1343.2C2391.33 1343.63 2388.73 1343.63 2386.56 1344.06H2386.13C2383.1 1344.5 2380.06 1344.5 2377.03 1344.93C2374 1345.36 2370.96 1345.36 2367.93 1345.36C2366.2 1345.36 2364.03 1345.8 2362.3 1345.8C2358.83 1345.8 2355.8 1346.23 2352.76 1346.23C2348.43 1346.23 2344.53 1346.66 2340.2 1346.66C2335.86 1346.66 2331.96 1346.66 2327.63 1346.66C2324.6 1346.66 2321.56 1346.66 2318.53 1346.66C2136.1 1344.06 1971.43 1266.5 1854.43 1143.43C1854.43 1143.43 1854.43 1143 1854 1143C1867.43 1116.56 1917.26 1068.9 1969.26 1029.46C2035.13 979.631 2128.3 948.865 2128.3 948.865C2128.3 948.865 2189.4 938.898 2416.03 986.131C2588.93 1022.53 2662.6 1170.3 2687.73 1238.33Z" fill="#AD827B"/>
<path d="M2464.13 1106.16C2455.03 1150.8 2396.1 1177.23 2296.86 1137.36C2175.1 1087.96 2128.3 948.865 2128.3 948.865C2121.8 849.198 2106.63 763.831 2106.63 763.831C2247.46 751.698 2413.86 916.365 2413.86 916.365L2432.93 997.831C2434.66 1004.76 2438.13 1010.83 2443.33 1015.16C2452.43 1030.76 2470.2 1077.56 2464.13 1106.16Z" fill="#AD827B"/>
<path d="M2443.33 1015.6C2360.56 1011.26 2299.46 999.132 2234.03 881.698C2289.5 930.665 2354.93 949.298 2423.83 957.965L2432.93 997.832C2434.66 1005.2 2438.13 1011.26 2443.33 1015.6Z" fill="#EFBDA5"/>
<path d="M2614.5 493.431C2622.3 529.831 2626.2 559.298 2604.96 656.365C2583.73 753.431 2624.46 850.498 2522.2 939.331C2453.3 999.131 2332.83 1010.4 2236.63 944.965C2204.13 922.865 2174.23 892.098 2149.96 851.798C2130.9 820.165 2108.8 790.265 2084.1 762.965C2049.86 725.698 2008.7 650.731 2029.06 518.131C2062 302.332 2275.63 277.632 2401.73 301.465C2527.83 325.298 2593.26 397.231 2614.5 493.431Z" fill="#AD827B"/>
<path d="M2199.8 662.865C2199.8 662.865 2186.36 597.865 2123.1 605.665C2068.5 612.598 2049.43 743.465 2173.36 779.865" fill="#AD827B"/>
<path d="M2169.46 720.498C2169.46 720.498 2153.86 710.531 2155.6 693.198C2158.2 672.831 2155.6 660.265 2146.06 656.365C2122.23 646.398 2117.46 674.131 2118.33 677.598" stroke="#423232" stroke-width="13.4786" stroke-miterlimit="10" stroke-linecap="round" stroke-linejoin="round"/>
<path d="M2500.1 762.531C2500.1 762.531 2516.56 763.398 2532.16 744.765C2540.83 734.365 2548.2 721.365 2543.43 717.465C2538.66 713.131 2460.23 725.265 2455.03 735.665C2449.83 746.065 2480.16 762.531 2500.1 762.531Z" fill="#8E605C"/>
<path d="M2513.1 616.932C2513.1 616.932 2513.96 658.098 2540.4 704.032C2552.1 724.398 2534.33 757.765 2495.76 763.398" stroke="#423232" stroke-width="13.4786" stroke-miterlimit="10" stroke-linecap="round" stroke-linejoin="round"/>
<path opacity="0.42" d="M2278.23 784.632C2302.88 784.632 2322.86 768.141 2322.86 747.798C2322.86 727.456 2302.88 710.965 2278.23 710.965C2253.58 710.965 2233.6 727.456 2233.6 747.798C2233.6 768.141 2253.58 784.632 2278.23 784.632Z" fill="#7F5539"/>
<path opacity="0.42" d="M2598.03 711.832C2596.73 736.098 2597.16 759.932 2595.43 783.765C2576.36 779.432 2562.5 765.132 2562.5 748.232C2562.5 730.032 2577.66 715.298 2598.03 711.832Z" fill="#7F5539"/>
<path d="M2452.52 977C2452.52 977 2387.52 996.066 2297.39 966.6C2207.25 937.133 2119.29 859.566 2119.29 859.566C2119.29 859.566 2090.69 860 2079.85 881.666C2069.45 903.333 2069.89 947.966 2053.42 960.1C2049.52 962.7 2038.69 965.733 2022.65 970.066C1996.65 977.433 1958.09 988.7 1919.09 1010.8C1890.05 1027.27 1860.59 1049.37 1835.89 1079.7C1824.62 1093.57 1814.65 1109.17 1805.99 1126.93C1737.52 1266.03 1766.99 1461.03 1766.99 1461.03H2826.05C2826.05 1461.03 2795.29 1220.1 2728.99 1140.8C2662.69 1061.5 2536.15 997.366 2498.89 980.466V955.333C2499.32 955.333 2476.35 970.5 2452.52 977Z" fill="#48D89E"/>
<mask id="mask2_227_1044" style="mask-type:alpha" maskUnits="userSpaceOnUse" x="1760" y="859" width="1067" height="603">
<path d="M2452.52 977C2452.52 977 2387.52 996.066 2297.39 966.6C2207.25 937.133 2119.29 859.566 2119.29 859.566C2119.29 859.566 2090.69 860 2079.85 881.666C2069.45 903.333 2069.89 947.966 2053.42 960.1C2049.52 962.7 2038.69 965.733 2022.65 970.066C1996.65 977.433 1958.09 988.7 1919.09 1010.8C1890.05 1027.27 1860.59 1049.37 1835.89 1079.7C1824.62 1093.57 1814.65 1109.17 1805.99 1126.93C1737.52 1266.03 1766.99 1461.03 1766.99 1461.03H2826.05C2826.05 1461.03 2795.29 1220.1 2728.99 1140.8C2662.69 1061.5 2536.15 997.366 2498.89 980.466V955.333C2499.32 955.333 2476.35 970.5 2452.52 977Z" fill="#48D89E"/>
</mask>
<g mask="url(#mask2_227_1044)">
<path d="M1937.72 1142.53C1963.09 1142.53 1983.65 1121.97 1983.65 1096.6C1983.65 1071.23 1963.09 1050.67 1937.72 1050.67C1912.35 1050.67 1891.79 1071.23 1891.79 1096.6C1891.79 1121.97 1912.35 1142.53 1937.72 1142.53Z" fill="#FCED7E"/>
<path d="M2199.02 1121.3C2224.39 1121.3 2244.95 1100.73 2244.95 1075.37C2244.95 1050 2224.39 1029.43 2199.02 1029.43C2173.65 1029.43 2153.09 1050 2153.09 1075.37C2153.09 1100.73 2173.65 1121.3 2199.02 1121.3Z" fill="#FCED7E"/>
<path d="M2396.62 1023.8C2421.99 1023.8 2442.55 1003.23 2442.55 977.866C2442.55 952.498 2421.99 931.933 2396.62 931.933C2371.25 931.933 2350.69 952.498 2350.69 977.866C2350.69 1003.23 2371.25 1023.8 2396.62 1023.8Z" fill="#FCED7E"/>
<path d="M2117.55 1346.2C2142.92 1346.2 2163.49 1325.63 2163.49 1300.27C2163.49 1274.9 2142.92 1254.33 2117.55 1254.33C2092.19 1254.33 2071.62 1274.9 2071.62 1300.27C2071.62 1325.63 2092.19 1346.2 2117.55 1346.2Z" fill="#FCED7E"/>
<path d="M2652.29 1322.8C2677.66 1322.8 2698.22 1302.23 2698.22 1276.87C2698.22 1251.5 2677.66 1230.93 2652.29 1230.93C2626.92 1230.93 2606.35 1251.5 2606.35 1276.87C2606.35 1302.23 2626.92 1322.8 2652.29 1322.8Z" fill="#FCED7E"/>
<path d="M2399.22 1285.53C2424.59 1285.53 2445.15 1264.97 2445.15 1239.6C2445.15 1214.23 2424.59 1193.67 2399.22 1193.67C2373.85 1193.67 2353.29 1214.23 2353.29 1239.6C2353.29 1264.97 2373.85 1285.53 2399.22 1285.53Z" fill="#FCED7E"/>
<path d="M2616.75 1099.2C2642.12 1099.2 2662.69 1078.63 2662.69 1053.27C2662.69 1027.9 2642.12 1007.33 2616.75 1007.33C2591.38 1007.33 2570.82 1027.9 2570.82 1053.27C2570.82 1078.63 2591.38 1099.2 2616.75 1099.2Z" fill="#FCED7E"/>
</g>
<path d="M2499.32 980.467C2499.32 980.467 2504.95 1019.47 2494.99 1041.57C2478.95 1077.97 2367.59 1119.57 2232.82 1071.03C2125.79 1032.47 2073.35 979.167 2072.05 970.934" stroke="#329369" stroke-width="13.4786" stroke-miterlimit="10" stroke-linecap="round" stroke-linejoin="round"/>
<path d="M2153.09 903.767C2150.92 906.367 2148.75 909.833 2147.02 914.167C2140.95 928.9 2139.22 959.667 2139.22 959.667" stroke="#329369" stroke-width="13.4786" stroke-miterlimit="10" stroke-linecap="round" stroke-linejoin="round"/>
<path d="M2226.32 948.4C2224.59 951.867 2222.85 955.767 2221.99 960.1C2219.82 971.367 2217.22 1006.9 2217.22 1006.9" stroke="#329369" stroke-width="13.4786" stroke-miterlimit="10" stroke-linecap="round" stroke-linejoin="round"/>
<path d="M2299.99 978.733C2299.12 982.2 2298.25 986.533 2297.82 991.733C2296.95 997.8 2297.39 1034.63 2297.39 1034.63" stroke="#329369" stroke-width="13.4786" stroke-miterlimit="10" stroke-linecap="round" stroke-linejoin="round"/>
<path d="M2378.85 996.066C2379.72 1006.03 2380.15 1019.9 2378.85 1036.8" stroke="#329369" stroke-width="13.4786" stroke-miterlimit="10" stroke-linecap="round" stroke-linejoin="round"/>
<path d="M2445.15 992.6C2446.45 1000.83 2447.75 1012.1 2448.19 1026.4" stroke="#329369" stroke-width="13.4786" stroke-miterlimit="10" stroke-linecap="round" stroke-linejoin="round"/>
<path d="M2105.85 861.3C2095.45 865.2 2081.59 875.6 2076.39 905.933" stroke="#329369" stroke-width="13.4786" stroke-miterlimit="10" stroke-linecap="round" stroke-linejoin="round"/>
<path d="M2550.45 1006.03C2528.35 993.9 2510.15 985.233 2499.32 980.466V955.333" stroke="#329369" stroke-width="13.4786" stroke-miterlimit="10" stroke-linecap="round" stroke-linejoin="round"/>
<path d="M2417.8 567.549C2427.22 568.849 2434.49 558.882 2431.07 549.349C2429.36 544.149 2426.36 539.382 2421.65 536.349C2407.1 527.249 2352.76 526.382 2324.09 547.182C2298.84 566.249 2375.01 561.482 2417.8 567.549Z" fill="#423232"/>
<path d="M2536.33 572.315C2528.63 572.315 2523.92 562.349 2527.78 554.115C2529.91 549.782 2532.91 545.882 2537.19 543.716C2550.45 537.215 2585.97 541.116 2601.8 563.216C2615.93 582.716 2571.85 571.882 2536.33 572.315Z" fill="#423232"/>
<path d="M2402.82 622.149C2375.44 608.282 2332.22 618.682 2332.22 618.682" stroke="#423232" stroke-width="13.4786" stroke-miterlimit="10" stroke-linecap="round" stroke-linejoin="round"/>
<path d="M2571.85 630.816C2571.85 630.816 2560.73 618.682 2519.65 628.216" stroke="#423232" stroke-width="13.4786" stroke-miterlimit="10" stroke-linecap="round" stroke-linejoin="round"/>
<path d="M2488.92 815.866C2477.69 820.808 2472.3 810.924 2454.78 819.46C2442.2 825.301 2435.46 827.098 2420.18 818.113C2410.3 811.823 2398.17 820.808 2386.49 803.735" stroke="#423232" stroke-width="13.4786" stroke-miterlimit="10" stroke-linecap="round" stroke-linejoin="round"/>
<path d="M2724.43 976.089C2700.17 922.355 2681.53 929.722 2698.43 881.189C2715.33 833.089 2693.67 798.855 2649.03 753.355C2606.57 710.022 2602.23 662.789 2603.53 655.855C2599.63 674.055 2597.9 692.689 2597.03 710.889C2595.73 735.155 2596.17 758.989 2594.43 782.822C2590.97 836.122 2578.4 888.555 2521.2 937.955C2496.07 959.622 2464 975.222 2428.47 982.589C2418.93 1011.62 2433.23 1032.42 2464.43 1035.89C2495.63 1039.36 2508.63 1086.16 2579.27 1108.26C2685 1142.49 2748.7 1029.82 2724.43 976.089Z" fill="#402F17"/>
<path d="M2526.83 451.755C2535.93 456.522 2543.73 452.189 2548.5 442.655C2598.77 434.855 2610.47 535.389 2612.2 541.455C2613.93 547.955 2614.8 566.155 2611.33 615.989C2609.17 643.722 2770.37 446.989 2623.03 363.789C2633.87 347.755 2626.07 268.022 2535.5 248.522C2503 241.589 2460.53 271.922 2407.23 260.222C2198.8 213.855 1982.57 258.055 1999.47 533.222C2003.37 593.455 2007.27 658.455 1905 701.789C1786.27 752.055 1792.33 883.355 1875.97 910.222C1910.63 921.489 1796.23 999.489 1862.97 1068.82C1897.63 1105.22 1959.6 1031.56 2022.43 1071.42C2117.33 1131.66 2164.57 1104.36 2183.2 1080.52C2221.33 1031.99 2174.1 934.489 2174.1 934.489C2174.1 934.489 2192.73 904.589 2198.8 888.555C2228.27 809.689 2158.07 774.155 2158.07 774.155C2049.73 732.555 2069.23 611.655 2122.1 604.722C2177.57 597.789 2194.9 647.189 2197.93 659.322C2197.93 659.322 2246.9 726.922 2341.37 572.655C2434.97 418.389 2486.1 429.655 2526.83 451.755Z" fill="#402F17"/>
<path d="M2139.54 746.467V820.134" stroke="#FFDE55" stroke-width="13.4786" stroke-miterlimit="10" stroke-linecap="round" stroke-linejoin="round"/>
<path d="M2198.04 918.934C2186.34 930.634 2170.31 938.001 2152.11 938.001C2117.01 938.001 2087.98 909.401 2087.98 873.867C2087.98 838.767 2116.58 809.734 2152.11 809.734C2169.88 809.734 2186.34 817.101 2198.04 828.801C2190.24 824.467 2181.58 821.867 2172.04 821.867C2143.44 821.867 2120.04 845.267 2120.04 873.867C2120.04 902.467 2143.44 925.867 2172.04 925.867C2181.58 926.301 2190.24 923.701 2198.04 918.934Z" fill="#FFDE55"/>
<path d="M2139.54 899.867C2153.66 899.867 2165.11 888.421 2165.11 874.301C2165.11 860.18 2153.66 848.734 2139.54 848.734C2125.42 848.734 2113.98 860.18 2113.98 874.301C2113.98 888.421 2125.42 899.867 2139.54 899.867Z" fill="#FF6B57"/>
<path d="M2633.98 829.668C2626.18 825.334 2617.51 822.734 2607.98 822.734C2601.04 822.734 2594.98 824.034 2588.91 826.634C2589.78 821.434 2591.08 816.234 2591.51 811.034C2608.41 811.468 2623.14 818.401 2633.98 829.668Z" fill="#FFDE55"/>
<path d="M2634.41 918.934C2622.71 930.634 2606.68 938.001 2588.48 938.001C2570.28 938.001 2553.38 930.201 2541.68 917.634C2548.61 909.834 2554.68 902.034 2560.31 894.234C2568.11 912.867 2586.74 925.434 2607.98 925.434C2617.51 926.3 2626.61 923.7 2634.41 918.934Z" fill="#FFDE55"/>
<path d="M2601.48 874.301C2601.48 888.601 2590.21 899.868 2575.91 899.868C2570.28 899.868 2565.08 898.134 2560.74 894.668C2570.71 879.934 2578.08 864.768 2582.84 850.034C2593.24 852.634 2601.48 862.601 2601.48 874.301Z" fill="#FF6B57"/>
</g>
<path d="M1417 20.5C1787.61 20.5001 2087.49 320.815 2087.5 690.975L2087.49 695.315C2085.6 1063.97 1786.14 1361.5 1417 1361.5C1046.38 1361.5 746.5 1061.17 746.5 691C746.5 320.379 1046.83 20.5 1417 20.5Z" fill="#A4A3A0" stroke="white" stroke-width="41"/>
<mask id="mask3_227_1044" style="mask-type:alpha" maskUnits="userSpaceOnUse" x="767" y="41" width="1300" height="1300">
<path d="M1417 1341C1057.71 1341 767 1049.86 767 691C767 331.71 1058.14 41 1417 41C1776.29 41 2067 332.141 2067 691C2067.43 1050.29 1776.29 1341 1417 1341Z" fill="#F7C0B5"/>
</mask>
<g mask="url(#mask3_227_1044)">
<path d="M1781 1238.33C1777.97 1240.5 1774.5 1242.66 1771.47 1244.83C1768 1247 1764.97 1249.16 1761.5 1250.9C1758.47 1252.63 1755.87 1254.36 1752.83 1256.1C1752.4 1256.53 1751.97 1256.53 1751.53 1256.96C1741.57 1263.03 1731.17 1268.66 1720.77 1273.86C1717.73 1275.6 1714.27 1277.33 1711.23 1278.63C1711.23 1278.63 1710.8 1279.06 1710.37 1279.06C1706.9 1280.8 1703.43 1282.53 1699.97 1284.26C1693.03 1287.73 1685.67 1290.76 1678.73 1293.8C1675.27 1295.53 1671.37 1296.83 1667.9 1298.13C1664.43 1299.43 1660.53 1301.16 1657.07 1302.46C1653.6 1303.76 1649.7 1305.5 1646.23 1306.8C1646.23 1306.8 1646.23 1306.8 1645.8 1306.8C1642.33 1308.1 1638.43 1309.4 1634.97 1310.7C1627.17 1313.3 1618.93 1315.9 1611.13 1318.5C1608.53 1319.36 1605.5 1320.23 1602.9 1321.1C1594.67 1323.7 1586.43 1325.86 1578.2 1327.6C1575.17 1328.46 1572.13 1328.9 1568.67 1329.76C1560.87 1331.5 1552.63 1333.23 1544.83 1334.96C1543.1 1335.4 1541.8 1335.4 1540.07 1335.83C1537.47 1336.26 1534.43 1336.7 1531.83 1337.13C1527.93 1337.56 1524.47 1338.43 1520.57 1338.86C1518.83 1339.3 1517.1 1339.3 1515.37 1339.73C1513.2 1340.16 1510.6 1340.6 1508 1340.6C1501.07 1341.46 1493.7 1342.33 1486.77 1343.2C1484.6 1343.63 1482 1343.63 1479.83 1344.06H1479.4C1476.37 1344.5 1473.33 1344.5 1470.3 1344.93C1467.27 1345.36 1464.23 1345.36 1461.2 1345.36C1459.47 1345.36 1457.3 1345.8 1455.57 1345.8C1452.1 1345.8 1449.07 1346.23 1446.03 1346.23C1441.7 1346.23 1437.8 1346.66 1433.47 1346.66C1429.13 1346.66 1425.23 1346.66 1420.9 1346.66C1417.87 1346.66 1414.83 1346.66 1411.8 1346.66C1229.37 1344.06 1064.7 1266.5 947.7 1143.43C947.7 1143.43 947.7 1143 947.267 1143C960.7 1116.56 1010.53 1068.9 1062.53 1029.46C1128.4 979.631 1221.57 948.865 1221.57 948.865C1221.57 948.865 1282.67 938.898 1509.3 986.131C1682.2 1022.53 1755.87 1170.3 1781 1238.33Z" fill="#F7D3B5"/>
<path d="M1557.4 1106.16C1548.3 1150.8 1489.37 1177.23 1390.13 1137.36C1268.37 1087.96 1221.57 948.865 1221.57 948.865C1215.07 849.198 1199.9 763.831 1199.9 763.831C1340.73 751.698 1507.13 916.365 1507.13 916.365L1526.2 997.831C1527.93 1004.76 1531.4 1010.83 1536.6 1015.16C1545.7 1030.76 1563.47 1077.56 1557.4 1106.16Z" fill="#F7D3B5"/>
<path d="M1536.6 1015.6C1453.83 1011.26 1392.73 999.131 1327.3 881.698C1382.77 930.664 1448.2 949.298 1517.1 957.964L1526.2 997.831C1527.93 1005.2 1531.4 1011.26 1536.6 1015.6Z" fill="#EFBDA5"/>
<path d="M1707.77 493.431C1715.57 529.831 1719.47 559.298 1698.23 656.365C1677 753.431 1717.73 850.498 1615.47 939.331C1546.57 999.131 1426.1 1010.4 1329.9 944.964C1297.4 922.864 1267.5 892.098 1243.23 851.798C1224.17 820.165 1202.07 790.265 1177.37 762.965C1143.13 725.698 1101.97 650.731 1122.33 518.131C1155.27 302.332 1368.9 277.632 1495 301.465C1621.1 325.298 1686.53 397.231 1707.77 493.431Z" fill="#F7D3B5"/>
<path d="M1293.07 662.864C1293.07 662.864 1279.63 597.864 1216.37 605.664C1161.77 612.598 1142.7 743.464 1266.63 779.864" fill="#F7D3B5"/>
<path d="M1262.73 720.498C1262.73 720.498 1247.13 710.531 1248.87 693.198C1251.47 672.831 1248.87 660.265 1239.33 656.365C1215.5 646.398 1210.73 674.131 1211.6 677.598" stroke="#423232" stroke-width="13.4786" stroke-miterlimit="10" stroke-linecap="round" stroke-linejoin="round"/>
<path d="M1593.37 762.531C1593.37 762.531 1609.83 763.398 1625.43 744.765C1634.1 734.365 1641.47 721.365 1636.7 717.465C1631.93 713.131 1553.5 725.265 1548.3 735.665C1543.1 746.065 1573.43 762.531 1593.37 762.531Z" fill="#EFBDA5"/>
<path d="M1606.37 616.931C1606.37 616.931 1607.23 658.098 1633.67 704.031C1645.37 724.398 1627.6 757.764 1589.03 763.398" stroke="#423232" stroke-width="13.4786" stroke-miterlimit="10" stroke-linecap="round" stroke-linejoin="round"/>
<path opacity="0.42" d="M1371.5 784.631C1396.15 784.631 1416.13 768.14 1416.13 747.798C1416.13 727.455 1396.15 710.964 1371.5 710.964C1346.85 710.964 1326.87 727.455 1326.87 747.798C1326.87 768.14 1346.85 784.631 1371.5 784.631Z" fill="#F7D3B5"/>
<path opacity="0.42" d="M1691.3 711.831C1690 736.098 1690.43 759.931 1688.7 783.764C1669.63 779.431 1655.77 765.131 1655.77 748.231C1655.77 730.031 1670.93 715.298 1691.3 711.831Z" fill="#F7D3B5"/>
<path d="M1672.62 1069.73C1672.62 1069.73 1605.46 1006.9 1539.16 991.733C1539.16 991.733 1595.06 1082.73 1430.82 1065.83C1303.42 1052.83 1220.66 946.233 1220.66 946.233C1220.66 946.233 1137.02 969.633 1069.42 1021.2C1069.42 1021.2 1078.52 1154.23 1230.62 1220.1C1382.72 1285.97 1594.62 1253.47 1644.89 1211C1695.16 1168.53 1685.19 1083.6 1672.62 1069.73Z" fill="#444444"/>
<path d="M1032.16 1050.23C1032.16 1050.23 904.757 1096.6 858.823 1228.77C812.89 1360.93 857.523 1557.67 857.523 1557.67H1871.52C1871.52 1557.67 1879.76 1329.3 1809.56 1202.33C1793.09 1172.87 1747.59 1125.2 1715.09 1110.03C1715.09 1110.03 1727.22 1221.83 1535.26 1231.8C1343.29 1241.77 1112.32 1180.67 1106.69 1145.13C1101.49 1108.73 1032.16 1050.23 1032.16 1050.23Z" fill="white"/>
<path d="M1761.02 1565.47C1488.89 1691.13 1040.82 1577.6 1040.82 1577.6C1040.82 1577.6 1031.72 1467.1 1064.66 1268.2C1065.96 1259.1 1067.26 1250 1068.12 1241.77C1077.66 1151.63 1055.56 1089.67 1032.16 1050.67C1032.16 1040.7 1042.56 1033.77 1054.26 1023.8C1059.02 1019.9 1065.52 1019.47 1068.99 1022.07C1075.06 1030.73 1080.69 1039.4 1085.46 1048.5C1133.99 1138.2 1229.32 1185.87 1330.72 1195.83C1468.96 1209.7 1526.59 1207.53 1595.49 1192.37C1661.79 1177.63 1691.69 1138.63 1673.06 1073.63C1672.62 1072.77 1672.62 1071.47 1672.19 1070.17C1683.89 1069.3 1711.19 1091.83 1720.29 1125.2C1729.82 1166.37 1737.19 1212.73 1742.82 1259.1C1761.46 1410.33 1761.02 1565.47 1761.02 1565.47Z" fill="#444444"/>
<path d="M1133.12 981.333C1133.12 981.333 1217.19 1150.77 1362.79 1243.5C1376.22 1252.17 1393.99 1248.7 1403.52 1236.13L1483.26 1132.13L1577.72 1216.63C1588.56 1226.6 1606.32 1220.97 1609.79 1206.67C1618.02 1170.27 1624.52 1102.67 1593.76 1012.53" stroke="white" stroke-width="13.4786" stroke-miterlimit="10" stroke-linecap="round" stroke-linejoin="round"/>
<path d="M1504.06 1505.67C1515.32 1376.1 1483.26 1132.57 1483.26 1132.57" stroke="white" stroke-width="13.4786" stroke-miterlimit="10" stroke-linecap="round" stroke-linejoin="round"/>
<path d="M1550.86 1275.13C1559.47 1275.13 1566.46 1268.15 1566.46 1259.53C1566.46 1250.92 1559.47 1243.93 1550.86 1243.93C1542.24 1243.93 1535.26 1250.92 1535.26 1259.53C1535.26 1268.15 1542.24 1275.13 1550.86 1275.13Z" fill="white"/>
<path d="M1557.79 1353.13C1566.41 1353.13 1573.39 1346.15 1573.39 1337.53C1573.39 1328.92 1566.41 1321.93 1557.79 1321.93C1549.17 1321.93 1542.19 1328.92 1542.19 1337.53C1542.19 1346.15 1549.17 1353.13 1557.79 1353.13Z" fill="white"/>
<path d="M1465.92 1058.03C1465.92 1058.03 1399.62 1017.73 1372.32 1024.67C1344.59 1031.6 1354.12 1131.27 1371.89 1147.3C1389.66 1163.33 1465.49 1112.2 1470.26 1107.87C1475.02 1103.53 1472.86 1064.97 1465.92 1058.03Z" fill="white"/>
<path d="M1491.06 1058.47C1491.06 1058.47 1517.06 1017.73 1543.49 1012.53C1569.49 1007.33 1581.62 1117.4 1569.92 1127.8C1558.22 1137.77 1503.62 1116.1 1497.56 1109.17C1491.06 1102.67 1487.59 1071.9 1491.06 1058.47Z" fill="white"/>
<path d="M1518.79 1093.13C1520.09 1069.3 1503.19 1048.93 1480.66 1046.77C1458.12 1044.6 1438.62 1061.93 1436.46 1085.77C1434.72 1110.03 1451.62 1131.27 1474.59 1133.43C1497.99 1135.17 1517.49 1117.4 1518.79 1093.13Z" fill="#444444"/>
<path d="M1436.46 1085.77C1436.89 1102.67 1445.99 1117.83 1459.86 1125.2C1473.29 1132.57 1490.62 1130.4 1501.89 1120C1513.16 1110.03 1517.49 1093.13 1513.59 1078.4C1509.69 1063.67 1497.56 1050.23 1480.66 1046.77C1484.99 1046.77 1488.89 1047.63 1493.22 1048.93C1497.12 1050.23 1501.02 1052.4 1504.49 1055C1511.42 1060.2 1517.06 1068 1519.66 1076.23C1522.69 1084.9 1523.12 1094 1520.96 1103.1C1519.66 1107.43 1517.92 1111.77 1515.76 1115.67C1513.59 1119.57 1510.56 1123.03 1507.09 1126.5C1500.16 1132.57 1491.49 1136.9 1482.39 1137.33C1473.29 1138.2 1463.76 1136.03 1456.39 1130.83C1448.59 1126.07 1442.96 1118.7 1439.49 1110.9C1436.02 1103.1 1435.16 1094 1436.46 1085.77Z" fill="white"/>
<path d="M1466.71 631.249C1466.71 631.682 1466.71 632.116 1466.71 632.116L1466.28 644.249C1465.84 654.649 1457.18 662.449 1446.78 662.016C1436.38 661.582 1428.58 652.482 1429.44 642.516L1429.88 630.382C1429.88 628.216 1430.74 625.616 1431.61 623.882L1466.28 625.616C1466.28 627.349 1466.71 629.082 1466.71 631.249Z" fill="#423232"/>
<path d="M1647.84 640.782L1647.41 652.049C1646.97 661.582 1638.74 668.949 1629.21 668.516C1619.67 668.082 1612.31 659.849 1612.74 650.316L1613.17 639.049C1613.17 636.882 1613.61 634.716 1614.47 632.982L1646.97 634.282C1647.84 636.449 1647.84 638.616 1647.84 640.782Z" fill="#423232"/>
<path d="M1510.04 571.882C1519.57 573.182 1526.94 563.215 1523.47 553.682C1521.74 548.482 1518.71 543.715 1513.94 540.682C1499.21 531.582 1444.17 530.715 1415.14 551.515C1389.57 570.582 1466.71 565.815 1510.04 571.882Z" fill="#423232"/>
<path d="M1630.07 576.648C1622.27 576.648 1617.51 566.682 1621.41 558.448C1623.57 554.115 1626.61 550.215 1630.94 548.049C1644.37 541.549 1680.34 545.449 1696.37 567.549C1710.67 587.049 1666.04 576.215 1630.07 576.648Z" fill="#423232"/>
<path d="M1494.87 626.482L1465.84 625.182L1431.18 623.882L1423.38 623.449" stroke="#423232" stroke-width="13.4786" stroke-miterlimit="10" stroke-linecap="round" stroke-linejoin="round"/>
<path d="M1666.04 635.149L1646.97 634.282L1614.47 632.982H1613.17" stroke="#423232" stroke-width="13.4786" stroke-miterlimit="10" stroke-linecap="round" stroke-linejoin="round"/>
<path d="M1583.93 815.866C1572.69 820.808 1567.3 810.924 1549.78 819.46C1537.2 825.301 1530.46 827.098 1515.18 818.113C1505.3 811.823 1493.17 820.808 1481.49 803.735" stroke="#423232" stroke-width="13.4786" stroke-miterlimit="10" stroke-linecap="round" stroke-linejoin="round"/>
<path d="M1714.25 486.323C1712.95 479.823 1711.22 472.89 1709.05 466.39C1706.88 459.89 1701.68 454.257 1694.75 452.957C1672.22 449.057 1650.55 410.057 1619.35 405.723C1520.12 392.29 1453.82 400.523 1360.65 436.923C1264.45 474.19 1367.58 608.956 1298.68 653.156C1295.22 641.023 1278.32 591.623 1222.85 598.556C1170.42 605.056 1150.48 726.39 1258.82 767.99C1211.58 845.123 1215.05 814.356 1180.38 772.756C1145.72 731.156 1076.38 623.256 1123.18 465.523C1169.98 307.79 1381.88 225.457 1579.05 305.623C1612.85 319.49 1633.22 353.723 1662.68 359.357C1936.98 411.79 1720.75 517.523 1714.25 486.323Z" fill="#423232"/>
<path d="M1447.75 404.423C1447.75 404.423 1410.92 393.589 1388.82 451.223C1366.72 508.856 1289.58 588.156 1225.45 495.856C1161.32 403.99 1257.52 330.323 1357.62 360.223C1457.72 390.123 1446.45 367.589 1447.75 404.423Z" fill="#423232"/>
<path d="M1511.45 362.39C1511.45 362.39 1608.95 424.357 1673.08 400.09C1713.38 384.923 1758.88 329.023 1727.25 287.423C1689.55 237.59 1572.98 275.29 1507.98 254.49C1410.48 223.29 1259.25 202.49 1188.18 319.49C1170.42 348.957 1154.38 378.857 1129.25 402.257C1103.25 426.523 1077.25 465.957 1075.08 527.49C1071.18 650.123 1167.38 756.723 1167.38 756.723C1167.38 756.723 1110.18 546.99 1218.08 515.79C1325.98 484.59 1355.88 376.69 1427.38 376.69C1498.88 376.69 1465.52 296.09 1511.45 362.39Z" fill="#423232"/>
<path d="M1606.35 417.423C1606.35 417.423 1684.78 515.357 1743.72 509.723C1802.65 504.09 1868.95 377.557 1706.88 334.223C1544.82 290.89 1606.35 417.423 1606.35 417.423Z" fill="#423232"/>
<path d="M1447.75 404.423C1447.75 404.423 1499.32 531.823 1636.25 546.99C1773.62 562.59 1829.08 311.256 1619.35 287.423C1409.62 263.59 1447.75 404.423 1447.75 404.423Z" fill="#423232"/>
<path d="M1338.12 344.623C1338.12 344.623 1370.18 490.223 1437.78 496.723C1505.38 503.223 1487.18 315.157 1398.78 302.157C1310.38 289.157 1338.12 344.623 1338.12 344.623Z" fill="#423232"/>
</g>
<path d="M691 20.5C1061.61 20.5 1361.49 320.815 1361.5 690.976L1361.49 695.315C1359.6 1063.97 1060.14 1361.5 691 1361.5C320.379 1361.5 20.5 1061.17 20.5 691C20.5 320.379 320.828 20.5 691 20.5Z" fill="#A4A3A0" stroke="white" stroke-width="41"/>
<mask id="mask4_227_1044" style="mask-type:alpha" maskUnits="userSpaceOnUse" x="41" y="41" width="1301" height="1300">
<path d="M691 1341C331.71 1341 41 1049.86 41 691C41 331.71 332.141 41 691 41C1050.29 41 1341 332.141 1341 691C1341.43 1050.29 1050.29 1341 691 1341Z" fill="#F7C0B5"/>
</mask>
<g mask="url(#mask4_227_1044)">
<path d="M1056.73 1238.33C1053.7 1240.5 1050.23 1242.66 1047.2 1244.83C1043.73 1247 1040.7 1249.16 1037.23 1250.9C1034.2 1252.63 1031.6 1254.36 1028.56 1256.1C1028.13 1256.53 1027.7 1256.53 1027.26 1256.96C1017.3 1263.03 1006.9 1268.66 996.498 1273.86C993.465 1275.6 989.998 1277.33 986.965 1278.63C986.965 1278.63 986.531 1279.06 986.098 1279.06C982.631 1280.8 979.165 1282.53 975.698 1284.26C968.765 1287.73 961.398 1290.76 954.465 1293.8C950.998 1295.53 947.098 1296.83 943.631 1298.13C940.165 1299.43 936.265 1301.16 932.798 1302.46C929.331 1303.76 925.431 1305.5 921.965 1306.8C921.965 1306.8 921.965 1306.8 921.531 1306.8C918.065 1308.1 914.165 1309.4 910.698 1310.7C902.898 1313.3 894.665 1315.9 886.865 1318.5C884.265 1319.36 881.231 1320.23 878.631 1321.1C870.398 1323.7 862.165 1325.86 853.931 1327.6C850.898 1328.46 847.865 1328.9 844.398 1329.76C836.598 1331.5 828.365 1333.23 820.565 1334.96C818.831 1335.4 817.531 1335.4 815.798 1335.83C813.198 1336.26 810.165 1336.7 807.565 1337.13C803.665 1337.56 800.198 1338.43 796.298 1338.86C794.565 1339.3 792.831 1339.3 791.098 1339.73C788.931 1340.16 786.331 1340.6 783.731 1340.6C776.798 1341.46 769.431 1342.33 762.498 1343.2C760.331 1343.63 757.731 1343.63 755.565 1344.06H755.131C752.098 1344.5 749.065 1344.5 746.031 1344.93C742.998 1345.36 739.965 1345.36 736.931 1345.36C735.198 1345.36 733.031 1345.8 731.298 1345.8C727.831 1345.8 724.798 1346.23 721.765 1346.23C717.431 1346.23 713.531 1346.66 709.198 1346.66C704.865 1346.66 700.965 1346.66 696.631 1346.66C693.598 1346.66 690.565 1346.66 687.531 1346.66C505.098 1344.06 340.431 1266.5 223.431 1143.43C223.431 1143.43 223.431 1143 222.998 1143C236.431 1116.56 286.265 1068.9 338.265 1029.46C404.131 979.631 497.298 948.864 497.298 948.864C497.298 948.864 558.398 938.897 785.031 986.131C957.931 1022.53 1031.6 1170.3 1056.73 1238.33Z" fill="#FEE4BF"/>
<path d="M833.131 1106.16C824.031 1150.8 765.098 1177.23 665.865 1137.36C544.098 1087.96 497.298 948.864 497.298 948.864C490.798 849.198 475.631 763.831 475.631 763.831C616.465 751.698 782.865 916.364 782.865 916.364L801.931 997.831C803.665 1004.76 807.131 1010.83 812.331 1015.16C821.431 1030.76 839.198 1077.56 833.131 1106.16Z" fill="#FEE4BF"/>
<path d="M812.331 1015.6C729.565 1011.26 668.465 999.131 603.031 881.698C658.498 930.664 723.931 949.298 792.831 957.964L801.931 997.831C803.665 1005.2 807.131 1011.26 812.331 1015.6Z" fill="#EFBDA5"/>
<path d="M983.498 493.431C991.298 529.831 995.198 559.298 973.965 656.364C952.731 753.431 993.464 850.498 891.198 939.331C822.298 999.131 701.831 1010.4 605.631 944.964C573.131 922.864 543.231 892.098 518.965 851.798C499.898 820.164 477.798 790.264 453.098 762.964C418.865 725.698 377.698 650.731 398.065 518.131C430.998 302.331 644.631 277.631 770.731 301.464C896.831 325.298 962.265 397.231 983.498 493.431Z" fill="#FEE4BF"/>
<path d="M568.798 662.864C568.798 662.864 555.365 597.864 492.098 605.664C437.498 612.598 418.431 743.464 542.365 779.864" fill="#FEE4BF"/>
<path d="M538.465 720.498C538.465 720.498 522.865 710.531 524.598 693.198C527.198 672.831 524.598 660.264 515.065 656.364C491.231 646.398 486.465 674.131 487.331 677.598" stroke="#423232" stroke-width="13.4786" stroke-miterlimit="10" stroke-linecap="round" stroke-linejoin="round"/>
<path d="M869.098 762.531C869.098 762.531 885.565 763.397 901.165 744.764C909.831 734.364 917.198 721.364 912.431 717.464C907.665 713.131 829.231 725.264 824.031 735.664C818.831 746.064 849.165 762.531 869.098 762.531Z" fill="#EFBDA5"/>
<path d="M882.098 616.931C882.098 616.931 882.965 658.098 909.398 704.031C921.098 724.398 903.331 757.764 864.765 763.398" stroke="#423232" stroke-width="13.4786" stroke-miterlimit="10" stroke-linecap="round" stroke-linejoin="round"/>
<path opacity="0.42" d="M647.231 784.631C671.882 784.631 691.865 768.14 691.865 747.798C691.865 727.455 671.882 710.964 647.231 710.964C622.581 710.964 602.598 727.455 602.598 747.798C602.598 768.14 622.581 784.631 647.231 784.631Z" fill="#F2A5B2"/>
<path opacity="0.42" d="M967.031 711.831C965.731 736.098 966.165 759.931 964.431 783.764C945.365 779.431 931.498 765.131 931.498 748.231C931.498 730.031 946.665 715.298 967.031 711.831Z" fill="#F2A5B2"/>
<path d="M1199.93 1506.49H104.462C104.462 1506.49 110.962 1305.42 176.829 1161.99C226.662 1053.65 344.095 993.42 431.629 962.22C456.329 953.554 478.862 947.054 496.195 942.287C496.195 944.454 496.629 946.187 496.629 948.354C496.629 948.354 543.429 1087.45 665.195 1136.85C764.429 1177.15 823.362 1150.29 832.462 1105.65C838.095 1077.05 820.329 1030.25 811.229 1015.09C806.029 1010.75 802.562 1004.25 800.829 997.754L797.362 983.454C805.595 981.72 813.395 979.554 821.195 976.954C823.795 976.087 825.962 975.22 828.562 974.354C884.462 989.087 968.528 1024.19 1067.76 1107.39C1180 1200.99 1199.93 1506.49 1199.93 1506.49Z" fill="#BEE3EB"/>
<path d="M627.495 1181.92C477.995 1114.75 419.928 994.72 431.195 962.22C431.195 962.22 431.195 961.787 431.628 961.353C439.428 945.32 451.995 932.32 467.595 923.22C476.262 918.02 485.795 913.253 493.595 910.653C494.028 916.72 495.762 935.787 496.195 942.287C496.195 944.453 496.628 946.187 496.628 948.353C496.628 948.353 524.362 1051.92 646.128 1101.32C745.362 1141.62 806.895 1115.19 813.395 1070.12C820.762 1020.29 792.595 984.32 792.595 984.32C800.828 982.587 813.828 979.553 821.628 976.953C840.695 999.92 860.195 1022.89 867.562 1083.55C877.962 1170.65 782.195 1251.69 627.495 1181.92Z" fill="white"/>
<path d="M318.962 1506.49L299.462 1345.72" stroke="#544D4D" stroke-width="13.4786" stroke-miterlimit="10" stroke-linecap="round" stroke-linejoin="round"/>
<path d="M1075.56 1291.12C1075.56 1291.12 1062.56 1322.75 1066.46 1354.39C1070.36 1386.02 1081.63 1432.39 1065.6 1506.49" stroke="#544D4D" stroke-width="13.4786" stroke-miterlimit="10" stroke-linecap="round" stroke-linejoin="round"/>
<path d="M724.943 660.439C714.543 660.006 706.743 651.339 707.61 640.939L708.043 628.806C708.476 618.406 717.143 610.606 727.543 611.473C737.943 611.906 745.743 620.573 744.876 630.973L744.443 643.106C744.01 653.073 735.343 660.873 724.943 660.439Z" fill="#423232"/>
<path d="M907.376 666.939C897.843 666.505 890.476 658.272 890.91 648.739L891.343 637.472C891.776 627.939 900.009 620.572 909.543 621.005C919.076 621.439 926.443 629.672 926.01 639.205L925.576 650.472C925.143 660.005 916.909 667.372 907.376 666.939Z" fill="#423232"/>
<path d="M766.977 635.306C766.977 635.306 755.71 619.272 736.21 616.239C720.177 613.639 702.41 621.439 699.81 630.539" stroke="#423232" stroke-width="13.4786" stroke-miterlimit="10" stroke-linecap="round" stroke-linejoin="round"/>
<path d="M894.81 639.206C894.81 639.206 894.81 625.339 914.743 625.339C931.21 625.339 938.143 640.506 938.143 640.506" stroke="#423232" stroke-width="13.4786" stroke-miterlimit="10" stroke-linecap="round" stroke-linejoin="round"/>
<path d="M784.743 565.539C793.843 568.572 802.943 560.339 801.209 550.372C800.343 545.172 798.176 539.972 793.843 536.072C780.843 524.372 727.109 513.972 694.609 529.139C666.009 543.005 743.143 551.672 784.743 565.539Z" fill="#423232"/>
<path d="M914.309 572.473C906.942 575.073 899.142 567.273 900.442 558.173C900.875 553.406 902.609 548.639 906.075 545.173C916.475 534.773 952.009 526.539 974.542 542.573C994.042 556.006 948.109 559.906 914.309 572.473Z" fill="#423232"/>
<path d="M857.925 815.866C846.693 820.808 841.302 810.924 823.78 819.46C811.2 825.301 804.46 827.098 789.185 818.113C779.3 811.823 767.169 820.808 755.488 803.735" stroke="#423232" stroke-width="13.4786" stroke-miterlimit="10" stroke-linecap="round" stroke-linejoin="round"/>
<path d="M807.187 980.663C838.82 972.43 866.987 958.13 889.953 938.197C992.22 849.797 951.487 752.296 972.72 655.23C979.653 624.03 983.553 599.763 986.153 580.263C982.687 579.83 978.787 579.396 974.887 578.53C959.287 576.363 948.887 562.063 950.62 546.463C951.487 539.963 951.92 533.463 952.354 526.53C950.62 526.096 951.053 526.096 949.32 526.096C946.72 534.33 943.687 542.996 941.52 551.23C937.62 564.23 925.053 572.463 912.053 571.596H911.62C896.453 570.296 885.187 557.73 885.187 542.563C885.62 531.73 885.62 520.896 886.053 510.063C884.32 509.63 885.187 510.063 883.453 509.63C881.287 520.896 879.12 532.163 876.953 543.863C874.353 558.163 861.787 568.13 847.487 567.263C810.22 565.53 773.387 565.096 740.02 565.096C725.287 565.096 713.153 554.263 711.853 539.53C709.687 520.463 706.653 501.396 701.453 481.896C695.82 499.23 695.82 517.43 696.687 536.063C697.553 552.096 684.987 565.53 668.953 565.963C630.387 566.83 604.387 568.13 600.053 568.563C601.353 627.93 587.92 693.796 564.087 649.163C562.354 646.13 561.053 643.096 559.32 639.196C549.353 621.43 529.42 600.196 491.72 604.963C438.853 611.896 419.353 734.53 530.287 775.263C530.72 784.363 532.887 793.463 536.787 802.996C553.687 844.163 561.053 878.396 561.053 906.563C561.053 1069.93 293.687 1001.9 218.287 853.696C189.254 796.063 188.82 726.73 243.853 653.93C378.62 488.83 338.32 551.663 368.22 453.73C417.187 293.396 528.987 242.263 677.187 243.563C677.187 243.563 923.754 243.563 989.187 303.363C1054.62 363.163 1032.09 549.93 1026.45 566.83C1024.72 572.03 1020.39 575.063 1015.62 577.23C1013.02 662.596 1021.69 692.496 1052.02 761.396C1118.32 913.063 993.087 1057.36 807.187 980.663Z" fill="#423232"/>
<path d="M564.087 649.596C562.353 646.563 561.053 643.529 559.32 639.629C561.053 643.096 562.787 646.563 564.087 649.596Z" fill="#FEE4BF"/>
<path opacity="0.6" d="M906.083 718.253C906.083 718.253 911.283 747.72 945.516 762.453C954.183 765.92 963.283 760.286 963.283 750.753C962.85 750.753 908.25 721.72 906.083 718.253Z" fill="#B7AEA9"/>
<path opacity="0.6" d="M823.75 647.186C823.75 647.186 851.483 619.453 865.35 616.419L828.516 625.086L823.75 647.186Z" fill="#B7AEA9"/>
<path opacity="0.6" d="M638.717 718.253C638.717 718.253 654.75 754.653 702.85 763.32C750.95 772.42 794.717 737.753 815.083 679.687C815.083 679.687 798.617 733.42 732.75 743.387C667.317 754.22 638.717 718.253 638.717 718.253Z" fill="#B7AEA9"/>
<path opacity="0.29" d="M716.283 523.687C655.183 523.687 605.35 574.82 604.916 637.22C604.916 666.687 615.75 693.553 633.516 713.053L790.816 554.02C771.316 534.953 745.316 523.687 716.283 523.687Z" fill="#DBC3ED"/>
<path opacity="0.23" d="M790.817 554.02L633.517 713.053C653.45 735.153 681.617 748.587 712.817 748.587C773.05 748.587 822.45 698.753 824.183 636.787C825.05 604.287 812.05 574.82 790.817 554.02Z" fill="#C4ADD8"/>
<path opacity="0.29" d="M969.783 523.687C923.416 523.687 884.416 574.82 882.683 637.22C881.816 662.353 887.45 685.32 896.983 703.953L1034.35 567.887C1020.05 541.02 996.65 523.687 969.783 523.687Z" fill="#DBC3ED"/>
<path opacity="0.23" d="M1034.35 567.453L896.982 703.519C911.282 730.819 934.682 748.586 961.982 748.586C1007.48 748.586 1046.48 698.753 1049.08 636.786C1049.95 611.219 1044.32 586.953 1034.35 567.453Z" fill="#C4ADD8"/>
<path d="M824.183 637.22C822.883 699.187 773.049 749.02 712.816 749.02C652.583 749.02 604.483 699.187 604.483 637.22C604.916 574.82 654.749 523.687 715.849 523.687C776.949 523.687 825.916 574.82 824.183 637.22Z" stroke="#4EC2DD" stroke-width="13.4786" stroke-miterlimit="10" stroke-linecap="round" stroke-linejoin="round"/>
<path d="M1049.08 637.22C1046.48 699.187 1007.48 749.02 961.983 749.02C916.483 749.02 880.95 699.187 882.683 637.22C884.416 574.82 923.416 523.687 969.783 523.687C1016.15 523.687 1051.68 574.82 1049.08 637.22Z" stroke="#4EC2DD" stroke-width="13.4786" stroke-miterlimit="10" stroke-linecap="round" stroke-linejoin="round"/>
<path d="M605.783 625.086H544.25" stroke="#4EC2DD" stroke-width="13.4786" stroke-miterlimit="10" stroke-linecap="round" stroke-linejoin="round"/>
<path d="M824.616 625.086C824.616 625.086 876.183 605.153 882.683 625.086" stroke="#4EC2DD" stroke-width="13.4786" stroke-miterlimit="10" stroke-linecap="round" stroke-linejoin="round"/>
</g>
</svg>
